PathFileType	4	(X/Y/Z)	5_coords_data.trc
DataRate	CameraRate	NumFrames	NumMarkers	Units	OrigDataRate	OrigDataStartFrame	OrigNumFrames
30.0	30.0	9	21	m	30.0	20	67
Frame#	Time	THUMB_TIP	THUMB_IP	THUMB_MCP	THUMB_CMC	INDEX_TIP	INDEX_DIP	INDEX_PIP	INDEX_MCP	MIDDLE_TIP	MIDDLE_DIP	MIDDLE_PIP	MIDDLE_MCP	RING_TIP	RING_DIP	RING_PIP	RING_MCP	PINKY_TIP	PINKY_DIP	PINKY_PIP	PINKY_MCP	WRIST
X1	Y1	Z1	X2	Y2	Z2	X3	Y3	Z3	X4	Y4	Z4	X5	Y5	Z5	X6	Y6	Z6	X7	Y7	Z7	X8	Y8	Z8	X9	Y9	Z9	X10	Y10	Z10	X11	Y11	Z11	X12	Y12	Z12	X13	Y13	Z13	X14	Y14	Z14	X15	Y15	Z15	X16	Y16	Z16	X17	Y17	Z17	X18	Y18	Z18	X19	Y19	Z19	X20	Y20	Z20	X21	Y21	Z21
18	0.6333333333333304	0.48629177314230954	-0.03426174080139721	-0.17034051164148384	0.48472575890765124	-0.03399939468673796	-0.14741718784381064	0.4657416809548267	-0.02869517286482548	-0.12332797832699524	0.4698658271615421	-0.029198528587664696	-0.07891370076806242	0.5746750021659571	0.029662730227309697	-0.1647580406982467	0.5597233811952365	0.02486277652750557	-0.15573532077420815	0.5391802390579216	0.01906091056749637	-0.14245648439792272	0.5073114195182533	0.005197489418799606	-0.11784307363870583	0.5994527239702584	0.035645353635061716	-0.13611043388382843	0.5836289780168068	0.028560967755089428	-0.130873971270167	0.5577254193442837	0.02024909640719197	-0.12041796855425532	0.5192010647533435	0.00925035578247213	-0.10064299120858827	0.6042206615426452	0.035680319045305775	-0.10625024202881825	0.5882393635200743	0.0291736202554973	-0.10102903676829861	0.5654111099627152	0.022212592979194534	-0.09391602631002663	0.5292393231108697	0.007196862636873802	-0.0838735907373494	0.6003486464107837	0.026161546956762205	-0.0654868251379482	0.5844457741789233	0.01983368656707074	-0.06524841862440742	0.5646653777508489	0.012797246349033675	-0.06543932490041077	0.5313366274269091	-0.0009678592235048411	-0.06621374172702618	0.4622830810018609	-0.023011742144276925	-0.05198982011943096
19	0.6666666666666637	0.48657967023501314	-0.0343366341165775	-0.17023088065033812	0.4848963812106576	-0.034058720275509824	-0.14731605352994664	0.46579690487910397	-0.028725476267505545	-0.12332466940540068	0.4698865205410352	-0.02920267727351855	-0.07890691031134522	0.5747920978156924	0.02968571634511208	-0.16461159284476684	0.5598327651401661	0.02487138495645813	-0.15560933872798266	0.5392613908381679	0.019077252188787863	-0.14237089403845435	0.5073589769597135	0.005195582728583004	-0.11781134730555609	0.5996024178818535	0.035480162073251886	-0.13593956793406975	0.5837497921570841	0.028443548914050876	-0.1307260918500986	0.5578101474345831	0.020192143007970564	-0.12031174202672862	0.5192368980422323	0.009254519377806747	-0.10059827602908117	0.6043254214950154	0.03551507823246203	-0.10613397039878306	0.5883235633956394	0.02904577812309106	-0.10092929044105944	0.5654718552151228	0.022138846871534112	-0.09383889461862613	0.5292615532251891	0.007193994332746589	-0.08382958663097281	0.6004366312070145	0.025948357429362967	-0.06537259118749172	0.5845187613653409	0.01965760996030641	-0.06515369398765805	0.5647245831183645	0.012660587858025929	-0.06536395151338362	0.5313617612299266	-0.0010197847568051976	-0.06617201819364701	0.4622830810018609	-0.023011742144276925	-0.051989820119430985
20	0.6999999999999968	0.4868412118037251	-0.03438952336588508	-0.17013787147684534	0.485050813468904	-0.034089007521150294	-0.147231449581889	0.46585603639966855	-0.02874080076407526	-0.12331958604627291	0.4699128741244757	-0.029205973157915732	-0.07889869363832383	0.574910695050128	0.029727230718918363	-0.16445754123722944	0.5599439440024769	0.024890897415343338	-0.1554794432619139	0.5393470236679456	0.01909467011640309	-0.14228169895343484	0.5074110418717602	0.005195777216887021	-0.11777557855706239	0.599761505246604	0.03529425714281953	-0.13576572247168733	0.5838786466459637	0.02830895734154304	-0.13057530925515543	0.5579004647987293	0.02012930066955332	-0.12020049192469592	0.5192759136306743	0.009251875903943274	-0.10055428113139536	0.6044337553624478	0.03533904072092975	-0.10601933594056914	0.588412771338388	0.028905857003711732	-0.10082874655579321	0.5655393368111061	0.022050319297518328	-0.09375855740096053	0.5292906491668673	0.007171908657719883	-0.08378928586769677	0.6005249070790435	0.02572911574576975	-0.06526903556725908	0.5845920170458391	0.019475899521611106	-0.06506828187804689	0.5647839300673041	0.012518782624038716	-0.06529241068990069	0.5313902413000005	-0.0010841110852646274	-0.06613281788041056	0.4622830810018608	-0.023011742144276925	-0.051989820119430985
21	0.7333333333333302	0.48707576032215383	-0.03442683769711874	-0.17005650429843366	0.48518693481101616	-0.03411499727360989	-0.14715813986472914	0.4659129595548199	-0.028749330052374455	-0.12331398978353533	0.46994010941708664	-0.02920866960288937	-0.07889033537325318	0.5750280735168966	0.02975514978820415	-0.16431330107924264	0.56005241203517	0.02490268169384746	-0.15535879849238815	0.5394339434044746	0.01911127187203787	-0.1421926237783387	0.5074685141152679	0.00518329669232287	-0.11774146978205507	0.5999222009373928	0.035072677438195976	-0.13561164450492877	0.5840099762386834	0.028138835133490137	-0.13044222132325223	0.5579946475413671	0.020033139566873692	-0.12010249588434796	0.5193174007262843	0.009239059794960647	-0.10051407221926573	0.6045432276618579	0.035154226218796936	-0.10591234038558356	0.5885045932907476	0.028751940348624938	-0.10073808264688916	0.5656115572931775	0.021943577584814355	-0.09368577250833718	0.5293252246488814	0.007131549421297678	-0.08375467393311986	0.6006124163588065	0.025502422165111893	-0.06518288045895818	0.5846672762808021	0.01927991017833397	-0.06500162796318804	0.5648439891535234	0.012366917702160696	-0.0652462531741562	0.531422099192842	-0.0011655106612503685	-0.06610305247694553	0.4622830810018609	-0.023011742144276925	-0.051989820119430985
22	0.7666666666666633	0.48732213053266216	-0.034451740410484044	-0.1699724061842257	0.4853351824237878	-0.03412978011162093	-0.1470824874692412	0.46597654520484655	-0.02875334459702361	-0.12330945429754026	0.46997082242620025	-0.029203611567664378	-0.07888273925879213	0.5751537031610937	0.029783369769040613	-0.16416148159405944	0.5601705361713097	0.024913501646901204	-0.15522900761261296	0.5395311348701011	0.0191177143551321	-0.14209760263842086	0.5075282813851124	0.0051746779793407915	-0.11770405432248898	0.6000805300984571	0.03484257802287605	-0.1354686060320665	0.5841388935947512	0.027963153777778915	-0.13031712589139965	0.5580868974718705	0.019934195808325894	-0.12000990114668003	0.5193604130318292	0.009230031450437437	-0.10046947665501238	0.6046445966481568	0.03499255718901939	-0.10580404715194058	0.5885916592251165	0.028614280214912413	-0.10064451394306137	0.5656791344059141	0.02184739598339891	-0.09361561195151702	0.5293582075610794	0.007099798397780854	-0.08371513354970062	0.6006866790000317	0.02531039699443638	-0.06509229053525065	0.5847309710497844	0.019114571889423226	-0.06492756326215146	0.5648947942172087	0.012239553669137426	-0.06519632363408853	0.5314517047443369	-0.0012391970499138205	-0.06607182152852537	0.4622830810018609	-0.023011742144276925	-0.051989820119430985
23	0.7999999999999965	0.4875167376248677	-0.034468857834890954	-0.16990675735550193	0.48544772928223845	-0.03413128959286982	-0.14702433501519646	0.4660207904012048	-0.028752812402993877	-0.12330754710387587	0.4699864774149325	-0.029203540214833734	-0.07887827554841609	0.5752356421061487	0.029836637848693837	-0.16404030053831198	0.5602464870507794	0.024950439756996845	-0.15512681082132715	0.5395939991274584	0.01914191990184122	-0.1420216334982481	0.5075602299523166	0.005178320292036798	-0.11768048290155689	0.60020751277127	0.034642296734440525	-0.13535881519131837	0.5842403527771123	0.0278119337969176	-0.13022111688734217	0.5581566837849691	0.019855218854135437	-0.11993800212441061	0.5193889912587981	0.00922659277723703	-0.10043809840891138	0.6047137422416927	0.03488034025491349	-0.10573086444817026	0.5886508892696006	0.028519119153874395	-0.10058114401880236	0.5657251922252392	0.021782267079999862	-0.09356635833676669	0.5293794740839679	0.007080984279360325	-0.08368800367564608	0.60073180915301	0.025196209555253146	-0.06503132923773358	0.5847701879836343	0.019015250342475976	-0.06488168681287787	0.5649269848716296	0.012161064429878077	-0.06516354623045031	0.5314712186373234	-0.0012856273473733637	-0.06604764855657158	0.4622830810018609	-0.023011742144276925	-0.05198982011943096
24	0.8333333333333297	0.4876777548405581	-0.03444984894708514	-0.16986197781888454	0.485541597095551	-0.03410681072845778	-0.14698580779702541	0.4660595877544884	-0.028740810939038464	-0.1233114047782648	0.46999090732794124	-0.02919440458417244	-0.07887910820002697	0.5752665115026202	0.029930962060037536	-0.16395123757013452	0.560272384932395	0.025034532044740154	-0.15505173525251262	0.5396110863799031	0.01921196808006409	-0.14196669325785122	0.5075654793859125	0.0052095533217455525	-0.11766345175959159	0.6002866216849883	0.034509042827781444	-0.13528419802145222	0.5842983727146893	0.027720873108488586	-0.13015617240472493	0.5581902020195544	0.019826310246420342	-0.11988734334925061	0.5193931304286539	0.009251509103013533	-0.10041662847413763	0.6047441828117796	0.03484012863565855	-0.1056863534831165	0.588675132219148	0.028490028513789123	-0.10054224602956469	0.565743151194882	0.021770129184230158	-0.09353174117589702	0.5293827545677576	0.007096459065843774	-0.08366635743399553	0.60075033186866	0.025154199174781344	-0.06499724989595088	0.5847839718350616	0.01898523086523507	-0.06485876786346675	0.5649371428870604	0.01214147983196745	-0.06513889551907706	0.5314747984336192	-0.0012881137558146127	-0.06603386520920901	0.4622830810018609	-0.023011742144276925	-0.05198982011943096
25	0.8666666666666629	0.4878148628145076	-0.03440408484987545	-0.16982327919125004	0.4856309797705849	-0.03406813360493255	-0.14695151075040816	0.46609695416608743	-0.02872686057348206	-0.12331440758427675	0.469997233240936	-0.029185136486126972	-0.07887942354775221	0.5752756117598394	0.030012976400403124	-0.16389510361944115	0.560280192112083	0.025107151888940304	-0.15500295677796266	0.5396124402474531	0.01927306392033412	-0.14193324815700814	0.5075620410834519	0.005248716101987405	-0.11764898008695468	0.6003358451422024	0.03439297708829436	-0.13525771298483635	0.5843319080382833	0.027640631358292533	-0.13013132787285664	0.5582059027884134	0.01979870304449738	-0.11986752935549139	0.5193915586013373	0.009269193881037752	-0.10040669578897052	0.6047581514130318	0.03482148448990374	-0.10566465770694095	0.5886867848108366	0.028474056689418714	-0.10052448885217813	0.565750131889622	0.021766737958096027	-0.09351722068204299	0.5293810507457005	0.007112970964371912	-0.08365426556501546	0.6007606183198763	0.025129685453823658	-0.06499237667506075	0.584791316676124	0.01896833904439721	-0.0648537569293631	0.5649444138928416	0.012124818717272001	-0.06513428935736759	0.5314712173447163	-0.001277330418017475	-0.06603482386866155	0.4622830810018609	-0.023011742144276925	-0.05198982011943101
26	0.8999999999999961	0.4879179101699722	-0.0343805139120722	-0.16979681055483145	0.485678209862487	-0.03403989865332513	-0.14693050950332426	0.46610638936835447	-0.028723821063652677	-0.1233190046464534	0.469988195604395	-0.029183386360990826	-0.07888241634263193	0.575239437379987	0.03008503129096185	-0.1638915259483053	0.5602415613359365	0.025179212450892274	-0.15500351966592005	0.5395794211549774	0.019329293757228916	-0.141932014495515	0.5075318519374322	0.005294341449432194	-0.1176501382301906	0.600331747312874	0.034314600469505296	-0.13529607515964204	0.584321128565214	0.027583128429948367	-0.13016310608728798	0.5581912885363164	0.019775594141749786	-0.11988286200444523	0.5193655918243832	0.00930917201362047	-0.10041064580626174	0.6047428832421344	0.03485732271744246	-0.10566310506666468	0.5886740344577233	0.028502603576135765	-0.10052407370084893	0.5657353143320711	0.021797825289168182	-0.09352114244889329	0.5293645937531981	0.007152865008504428	-0.08365115476139728	0.6007543715860238	0.025157001774636534	-0.06500608739784672	0.584784470383739	0.018997244898508958	-0.06486590602868061	0.5649393726317352	0.012148160610762515	-0.06513822685557269	0.5314589091598506	-0.0012362859597242482	-0.06603187483414044	0.462283081001861	-0.023011742144276925	-0.05198982011943101
